<?xml version="1.0" encoding="UTF-8" standalone="no"?>
<!-- Created with Inkscape (http://www.inkscape.org/) -->
<svg
   xmlns:dc="http://purl.org/dc/elements/1.1/"
   xmlns:cc="http://web.resource.org/cc/"
   xmlns:rdf="http://www.w3.org/1999/02/22-rdf-syntax-ns#"
   xmlns:svg="http://www.w3.org/2000/svg"
   xmlns="http://www.w3.org/2000/svg"
   xmlns:sodipodi="http://inkscape.sourceforge.net/DTD/sodipodi-0.dtd"
   xmlns:inkscape="http://www.inkscape.org/namespaces/inkscape"
   inkscape:export-ydpi="72.000000"
   inkscape:export-xdpi="72.000000"
   inkscape:export-filename="/home/chef/workspace/UNOEclipse/icons/service.png"
   sodipodi:docname="service.svg"
   sodipodi:docbase="/home/chef/workspace/UNOEclipse/icons"
   inkscape:version="0.41"
   sodipodi:version="0.32"
   id="svg2"
   height="16.000000pt"
   width="16.000000pt">
  <defs
     id="defs3" />
  <sodipodi:namedview
     inkscape:window-y="0"
     inkscape:window-x="0"
     inkscape:window-height="709"
     inkscape:window-width="1016"
     inkscape:current-layer="layer1"
     inkscape:document-units="px"
     inkscape:cy="10.000000"
     inkscape:cx="10.000000"
     inkscape:zoom="26.750000"
     inkscape:pageshadow="2"
     inkscape:pageopacity="0.0"
     borderopacity="1.0"
     bordercolor="#666666"
     pagecolor="#ffffff"
     id="base" />
  <metadata
     id="metadata4">
    <rdf:RDF
       id="RDF5">
      <cc:Work
         id="Work6"
         rdf:about="">
        <dc:format
           id="format7">image/svg+xml</dc:format>
        <dc:type
           rdf:resource="http://purl.org/dc/dcmitype/StillImage"
           id="type9" />
      </cc:Work>
    </rdf:RDF>
  </metadata>
  <g
     id="layer1"
     inkscape:groupmode="layer"
     inkscape:label="Layer 1">
    <path
       sodipodi:nodetypes="ccccc"
       id="path1291"
       d="M 9.8624412,1.4288709 C 5.2185480,1.4288709 1.4505854,5.2515870 1.4505855,9.9415884 C 1.4505855,14.631590 5.2185477,18.454306 9.8624412,18.454306 C 14.506334,18.454306 18.274297,14.631591 18.274297,9.9415884 C 18.274297,5.2515869 14.506334,1.4288708 9.8624412,1.4288709 z "
       style="opacity:0.85530549;fill:#eb0000;fill-opacity:1.0000000;fill-rule:evenodd;stroke:#810000;stroke-width:1.3054630;stroke-linecap:butt;stroke-linejoin:round;stroke-miterlimit:4.0000000;stroke-dashoffset:0.0000000;stroke-opacity:1.0000000" />
    <path
       style="font-size:12.000000;font-style:normal;font-variant:normal;font-weight:bold;font-stretch:normal;fill:#ffffff;fill-opacity:1.0000000;fill-rule:evenodd;stroke:#ffffff;stroke-width:0.63686407;stroke-linecap:round;stroke-linejoin:round;stroke-miterlimit:4.0000000;stroke-dashoffset:0.0000000;stroke-opacity:1.0000000;font-family:Bitstream Vera Sans;text-anchor:start;writing-mode:lr-tb"
       d="M 13.725922,4.5794942 L 13.725922,6.8502062 C 13.090296,6.5867354 12.470185,6.3879284 11.865581,6.2537850 C 11.260963,6.1196589 10.689942,6.0525915 10.152519,6.0525827 C 9.4393837,6.0525915 8.9122877,6.1436115 8.5712299,6.3256429 C 8.2301635,6.5076916 8.0596326,6.7903326 8.0596364,7.1735671 C 8.0596326,7.4610064 8.1733200,7.6861612 8.4006987,7.8490319 C 8.6332369,8.0071266 9.0518130,8.1436566 9.6564285,8.2586224 L 10.927661,8.4957539 C 12.214387,8.7352865 13.129053,9.0993666 13.671662,9.5879945 C 14.214250,10.076634 14.485550,10.771260 14.485561,11.671876 C 14.485550,12.855139 14.105731,13.736597 13.346102,14.316249 C 12.591623,14.891114 11.436663,15.178545 9.8812199,15.178545 C 9.1474138,15.178545 8.4110298,15.113872 7.6720655,14.984530 C 6.9330943,14.855184 6.1941265,14.663561 5.4551600,14.409665 L 5.4551600,12.074281 C 6.1941265,12.438364 6.9072562,12.713819 7.5945514,12.900648 C 8.2870072,13.082689 8.9536284,13.173709 9.5944171,13.173707 C 10.245530,13.173709 10.744203,13.073107 11.090439,12.871903 C 11.436663,12.670705 11.609777,12.383273 11.609786,12.009607 C 11.609777,11.674276 11.490921,11.415584 11.253220,11.233543 C 11.020670,11.051506 10.553002,10.888628 9.8502139,10.744908 L 8.6952527,10.507777 C 7.5377043,10.277836 6.6902166,9.9113596 6.1527875,9.4083499 C 5.6205221,8.9053503 5.3543904,8.2274907 5.3543916,7.3747694 C 5.3543904,6.3064894 5.7264581,5.4849143 6.4705958,4.9100408 C 7.2147288,4.3351877 8.2844235,4.0477561 9.6796826,4.0477452 C 10.315292,4.0477561 10.968995,4.0932662 11.640790,4.1842754 C 12.312571,4.2705156 13.007616,4.4022551 13.725922,4.5794942"
       id="text2061" />
  </g>
</svg>
